<svg xmlns="http://www.w3.org/2000/svg" viewBox="0 0 990 112" width="990" height="112"><path fill="#4fe6f2" fill-rule="evenodd" d="M45 0L45 1L37 2L35 4L32 4L32 5L28 6L27 8L22 10L20 13L18 13L13 18L13 20L10 22L10 24L6 28L6 30L4 32L4 35L2 37L2 40L1 40L1 45L0 45L0 66L1 66L2 74L4 76L4 79L5 79L6 83L8 84L8 86L10 87L10 89L14 92L14 94L16 96L18 96L25 103L27 103L27 104L29 104L29 105L31 105L35 108L38 108L38 109L41 109L41 110L46 110L46 111L69 110L69 109L73 109L73 108L78 107L78 106L82 105L83 103L87 102L89 99L91 99L99 91L99 89L103 85L103 83L104 83L104 81L105 81L105 79L108 75L109 68L110 68L110 63L111 63L111 48L110 48L110 43L109 43L108 36L107 36L102 24L99 22L99 20L90 11L88 11L84 7L82 7L82 6L80 6L76 3L70 2L70 1L46 0ZM169 0L169 1L159 2L159 3L156 3L154 5L151 5L151 6L145 8L144 10L139 12L136 16L134 16L130 20L130 22L124 28L124 30L123 30L123 32L120 36L119 42L118 42L118 46L117 46L117 65L118 65L119 73L120 73L124 83L126 84L128 89L137 98L139 98L140 100L142 100L146 104L148 104L150 106L153 106L155 108L166 110L166 111L175 111L175 112L191 111L191 110L202 108L202 107L204 107L208 104L209 104L209 110L212 111L212 112L237 112L237 111L240 110L240 70L239 70L239 68L237 68L236 66L234 66L231 63L231 62L237 62L237 61L240 60L240 29L237 26L235 26L234 24L232 24L231 22L229 22L228 20L226 20L225 18L223 18L222 16L220 16L219 14L217 14L216 12L214 12L213 10L211 10L210 8L208 8L207 6L205 6L204 4L202 4L201 2L197 1L197 0L170 0ZM249 0L248 3L247 3L247 59L248 59L249 63L251 63L252 65L254 65L256 67L256 69L249 69L248 72L247 72L247 94L248 94L248 96L249 97L277 97L279 95L279 89L280 89L283 92L290 95L291 97L293 97L294 99L296 99L297 101L299 101L302 104L304 104L305 106L307 106L308 108L310 108L311 110L319 111L319 112L362 112L362 111L365 111L365 109L362 106L360 106L359 104L357 104L356 102L354 102L353 100L351 100L350 98L348 98L347 96L345 96L344 94L342 94L341 92L339 92L338 90L336 90L335 88L333 88L332 86L330 86L329 84L327 84L326 82L324 82L323 80L321 80L320 78L318 78L317 76L315 76L314 74L312 74L311 72L307 71L306 69L304 69L303 67L301 67L300 65L298 65L297 63L295 63L294 61L292 61L291 59L289 59L288 57L283 55L279 51L279 30L280 29L330 29L330 30L333 31L333 33L335 34L335 36L338 40L338 50L339 50L340 53L369 53L370 50L371 50L371 35L370 35L369 25L367 23L367 20L366 20L364 14L358 8L358 6L351 0L250 0ZM430 0L430 1L425 1L425 2L417 3L413 6L410 6L409 8L407 8L407 9L403 10L401 13L399 13L388 24L388 26L386 27L386 29L385 29L385 31L384 31L384 33L381 37L380 43L379 43L378 63L379 63L380 72L382 74L382 77L383 77L384 81L386 82L388 87L392 90L392 92L396 96L398 96L401 100L403 100L404 102L406 102L406 103L408 103L408 104L410 104L410 105L412 105L416 108L423 109L423 110L428 110L428 111L437 111L437 112L457 110L457 109L466 107L469 104L470 104L470 110L473 111L473 112L498 112L498 111L501 111L501 69L492 63L492 62L501 61L501 29L498 26L496 26L495 24L493 24L492 22L490 22L489 20L487 20L485 17L483 17L482 15L480 15L479 13L477 13L476 11L474 11L473 9L471 9L470 7L468 7L467 5L465 5L464 3L459 1L459 0L431 0ZM558 0L557 3L556 3L556 29L557 29L557 28L517 28L517 29L510 29L509 33L513 37L517 38L518 40L520 40L521 42L523 42L524 44L526 44L527 46L529 46L530 48L532 48L533 50L535 50L536 52L538 52L542 56L546 57L547 59L549 59L550 61L552 61L553 63L555 63L556 65L558 65L559 67L561 67L562 69L564 69L565 71L570 73L571 75L573 75L576 78L578 78L579 80L581 80L582 82L549 82L545 79L545 77L542 74L542 71L541 71L541 68L540 68L540 60L538 60L538 59L514 59L514 60L510 60L509 61L509 83L510 83L512 93L514 94L514 96L518 100L518 102L527 111L531 111L531 112L629 112L629 111L632 110L632 79L631 79L631 77L628 76L627 74L625 74L624 72L622 72L621 70L619 70L618 68L616 68L615 66L613 66L612 64L610 64L608 61L606 61L605 59L603 59L602 57L600 57L599 55L597 55L596 53L594 53L590 49L586 48L585 46L583 46L582 44L580 44L579 42L577 42L576 40L574 40L573 38L568 36L567 34L565 34L564 32L560 31L560 30L616 30L617 26L616 26L616 23L614 21L614 18L613 18L612 14L607 9L607 7L602 2L600 2L598 0L559 0ZM692 0L692 1L682 2L682 3L676 4L676 5L668 8L667 10L663 11L660 15L658 15L652 21L652 23L649 25L649 27L647 28L647 30L646 30L646 32L645 32L645 34L642 38L641 45L640 45L639 59L640 59L641 70L642 70L642 73L643 73L643 76L644 76L646 82L648 83L650 88L661 99L663 99L664 101L666 101L667 103L669 103L669 104L671 104L675 107L678 107L678 108L681 108L681 109L684 109L684 110L698 111L698 112L718 110L718 109L722 109L724 107L727 107L729 105L731 105L732 110L735 111L735 112L760 112L760 111L763 110L763 70L754 63L754 62L760 62L760 61L763 60L763 30L762 30L761 27L759 27L758 25L756 25L755 23L753 23L752 21L750 21L749 19L744 17L742 14L735 11L733 8L731 8L730 6L728 6L727 4L725 4L724 2L722 2L720 0L693 0ZM771 0L771 2L770 2L770 60L771 60L772 63L777 65L779 67L779 69L771 69L771 71L770 71L770 95L772 97L800 97L802 95L802 88L805 88L806 90L808 90L809 92L811 92L815 96L819 97L820 99L822 99L823 101L825 101L829 105L833 106L837 110L846 111L846 112L883 112L883 111L885 111L885 108L884 108L883 104L879 100L874 98L873 96L869 95L868 93L866 93L865 91L863 91L862 89L860 89L859 87L857 87L856 85L854 85L853 83L851 83L850 81L848 81L847 79L845 79L844 77L842 77L841 75L839 75L838 73L836 73L835 71L833 71L832 69L830 69L829 67L827 67L826 65L824 65L823 63L821 63L820 61L818 61L817 59L812 57L812 55L814 53L816 53L817 51L819 51L820 49L822 49L823 47L825 47L826 45L828 45L829 43L831 43L832 41L834 41L835 39L837 39L838 37L840 37L841 35L843 35L844 33L846 33L847 31L849 31L850 29L852 29L853 27L857 26L858 24L860 24L861 22L863 22L864 20L866 20L867 18L869 18L870 16L875 14L876 12L878 12L884 6L885 0L840 0L840 1L836 2L835 4L833 4L832 6L830 6L829 8L822 11L821 13L819 13L818 15L816 15L815 17L811 18L810 20L808 20L804 24L802 24L802 2L801 2L801 0L772 0ZM919 0L919 1L914 1L914 2L904 4L904 5L894 9L893 11L888 13L878 23L878 25L874 29L874 31L873 31L873 33L870 37L870 40L869 40L868 49L867 49L867 63L868 63L868 68L869 68L870 74L871 74L875 84L882 91L882 93L884 95L886 95L890 100L894 101L895 103L897 103L897 104L899 104L899 105L901 105L905 108L912 109L912 110L917 110L917 111L926 111L926 112L946 110L946 109L955 107L958 104L959 104L959 109L962 112L988 112L988 111L990 111L990 69L981 63L981 62L990 61L990 29L987 26L985 26L984 24L982 24L980 21L978 21L977 19L975 19L974 17L972 17L971 15L969 15L968 13L966 13L965 11L963 11L962 9L960 9L959 7L957 7L956 5L954 5L953 3L951 3L948 0L920 0ZM53 8L53 9L45 9L45 10L38 11L38 12L30 15L29 17L27 17L15 30L15 32L14 32L14 34L11 38L11 41L10 41L10 44L9 44L9 50L8 50L9 66L10 66L10 70L11 70L11 73L12 73L15 81L18 83L18 85L26 93L28 93L32 97L37 98L37 99L42 100L42 101L47 101L47 102L64 102L64 101L68 101L68 100L71 100L71 99L74 99L74 98L80 96L82 93L84 93L93 84L93 82L97 78L98 73L100 71L101 62L102 62L101 43L100 43L100 40L99 40L99 37L98 37L96 31L91 26L91 24L87 20L85 20L83 17L81 17L80 15L78 15L78 14L76 14L72 11L65 10L65 9L54 8ZM52 19L52 20L47 21L42 26L42 28L40 30L40 39L41 39L41 42L42 42L42 46L44 48L44 59L51 65L51 50L47 49L43 44L41 44L35 38L25 37L25 38L20 39L19 41L16 42L16 44L13 47L13 51L12 51L13 59L14 59L15 63L18 66L20 66L21 68L24 68L24 69L33 69L35 67L38 67L51 80L51 98L61 98L61 80L74 67L79 68L79 69L88 69L88 68L92 67L93 65L95 65L95 63L97 62L97 60L99 58L99 48L98 48L97 44L90 38L80 37L80 38L77 38L74 41L72 41L71 44L69 45L68 51L67 51L68 59L61 66L61 50L63 50L64 48L66 48L69 45L69 43L71 41L71 38L72 38L72 32L71 32L71 29L70 29L69 25L66 22L64 22L63 20L60 20L60 19L53 19ZM175 28L175 29L170 29L170 30L162 32L161 34L159 34L153 40L153 42L151 43L151 45L149 47L149 51L148 51L149 64L150 64L152 70L154 71L154 73L156 75L158 75L160 78L162 78L162 79L164 79L168 82L185 83L185 82L188 82L188 81L191 81L191 80L195 80L197 82L197 84L199 85L199 87L201 88L201 90L203 91L206 98L208 99L208 101L209 101L209 50L208 50L208 45L205 42L203 42L202 40L200 40L199 38L197 38L196 36L194 36L193 34L191 34L190 32L188 32L187 30L182 29L182 28L176 28ZM436 28L436 29L431 29L431 30L428 30L428 31L422 33L413 42L413 44L411 46L411 49L410 49L410 55L409 55L411 66L414 69L414 71L420 77L422 77L423 79L425 79L429 82L446 83L446 82L456 80L459 83L459 85L461 86L461 88L463 89L463 91L465 92L465 94L467 95L469 100L470 100L470 46L469 46L468 43L466 43L465 41L463 41L462 39L460 39L459 37L457 37L456 35L454 35L453 33L451 33L447 29L437 28ZM698 28L698 29L692 29L692 30L689 30L689 31L685 32L684 34L682 34L675 41L675 43L672 47L672 51L671 51L671 61L672 61L673 67L680 76L682 76L683 78L685 78L686 80L689 80L691 82L708 83L708 82L711 82L711 81L714 81L714 80L719 81L719 83L721 84L721 86L723 87L723 89L725 90L725 92L729 96L730 100L731 100L731 45L728 42L726 42L725 40L723 40L722 38L720 38L719 36L717 36L716 34L714 34L713 32L711 32L710 30L704 29L704 28L699 28ZM925 28L925 29L920 29L920 30L917 30L917 31L911 33L902 42L902 44L900 46L900 49L899 49L899 62L900 62L901 68L903 69L903 71L909 77L911 77L912 79L914 79L916 81L922 82L922 83L935 83L935 82L945 80L948 83L948 85L950 86L950 88L952 89L952 91L954 92L954 94L956 95L958 100L959 100L959 45L957 43L955 43L954 41L952 41L951 39L949 39L948 37L946 37L945 35L943 35L942 33L940 33L939 31L937 31L936 29L926 28Z"></path></svg>