<svg xmlns="http://www.w3.org/2000/svg" viewBox="0 0 533 122" width="533" height="122">
<defs><linearGradient id="bf" x1="0" y1="0" x2="0" y2="1"><stop offset="0" stop-color="#ff4b52"></stop><stop offset="1" stop-color="#c11f29"></stop></linearGradient></defs>
<path d="M457.1140578163899,48.69501600365798 C457.1140578163899,48.69501600365798 457.2701315856324,47.18630290098055 457.2701315856324,47.18630290098055 C457.2701315856324,47.18630290098055 456.1255906111873,45.339429964944394 456.1255906111873,45.339429964944394 C456.1255906111873,45.339429964944394 456.2556520855563,43.51856932378195 456.2556520855563,43.51856932378195 C456.141685766416,39.78784616890339 462.59879779884557,39.568622305505244 462.5246151501297,43.830716862266954 C462.5246151501297,43.830716862266954 462.5246151501296,45.469491439313124 462.5246151501296,45.469491439313124 C462.5246151501296,45.469491439313124 461.95234466290714,46.56200782401059 461.95234466290714,46.56200782401059 C461.95234466290714,46.56200782401059 462.1344307270235,48.69501600365799 462.1344307270235,48.69501600365799 C464.2585347648262,49.3238302107366 465.9558370053383,50.34318701610164 467.2263374485597,51.753086419753096 C467.2263374485597,51.753086419753096 467.857135599248,53.06508154244783 467.857135599248,53.06508154244783 C467.857135599248,53.06508154244783 468.22130772748073,56.91490118376266 468.22130772748073,56.91490118376266 C468.22130772748073,56.91490118376266 469.5999593557893,63.20987654320991 469.5999593557893,63.20987654320991 C469.5999593557893,63.20987654320991 469.7040085352843,67.94411421023224 469.7040085352843,67.94411421023224 C469.7040085352843,67.94411421023224 470.1462175481381,71.58583549255704 470.1462175481381,71.58583549255704 C469.37049982480835,72.2894874847557 468.65082633330127,72.37619513433486 467.98719707361687,71.84595844129454 L467.7010618300057,69.79098714626835 L467.3580246913581,68.08230452674898 C467.3580246913581,68.08230452674898 466.99872986841444,64.97871259462481 466.99872986841444,64.97871259462481 C466.4488495080796,64.24796424436374 466.102018909763,63.51961998789879 465.9582380734646,62.79367982522993 C465.9582380734646,62.79367982522993 465.38596758624215,59.04790936341007 465.38596758624215,59.04790936341007 C465.38596758624215,59.04790936341007 464.5925925925926,61 464.5925925925926,61 C464.5925925925926,61 465.0478077528834,63.62607326118989 465.0478077528834,63.62607326118989 L465.95823807346454,67.63196667174722 L466.3484224965707,72.31417974902202 C466.3484224965707,72.31417974902202 466.04115226337456,76.24691358024694 466.04115226337456,76.24691358024694 C466.04115226337456,76.24691358024694 466.14032413758065,85.91860996799272 466.14032413758065,85.91860996799272 C466.14032413758065,85.91860996799272 465.5420413554847,93.20205253264241 465.5420413554847,93.20205253264241 C465.5420413554847,93.20205253264241 466.4784839709394,94.91886399430979 466.4784839709394,94.91886399430979 C466.4784839709394,94.91886399430979 467.3580246913581,96.92181069958849 467.3580246913581,96.92181069958849 C466.8872703547446,97.8539961103115 466.07384421713004,98.27886359324941 464.91774627851447,98.1964131484022 C463.74834093695307,97.23837983312092 462.7620414229901,96.06728464099231 461.95884773662556,94.68312757201647 L462.4205659706347,92.00548696844994 C462.19790985288,90.85602996386504 462.3685413808874,89.97652796829755 462.23847990651853,88.49382716049384 C462.23847990651853,88.49382716049384 461.82228318853845,85.65848701925522 461.82228318853845,85.65848701925522 C461.60768175583013,84.36762688614542 461.7442463039172,82.98897525783673 461.95884773662556,81.64609053497944 C461.95884773662556,81.64609053497944 461.95884773662556,79.25925925925927 461.95884773662556,79.25925925925927 C461.95884773662556,79.25925925925927 460.3786008230453,73.61316872427986 460.3786008230453,73.61316872427986 C460.3786008230453,73.61316872427986 459.4639321309157,78.69106127829218 459.47286822032544,78.83829398951903 C459.47810263355035,78.92453717884311 460.81357663670417,83.02991863242167 459.79332418838607,86.0226591474877 C459.01295534217354,88.31174109637762 459.7933241883862,91.2251181222375 459.7933241883862,91.2251181222375 C460.43958536663314,92.46320189704386 460.2878469798694,92.5282326342282 460.3786008230453,93.76131687242798 C459.8053440150153,94.47959861246736 458.9709542684895,94.77950865328498 457.9984758420974,95.20499923792104 C457.03227170135864,95.65629576211364 456.11371253862933,95.9651917637394 455.2427983539095,96.13168724279836 C454.4287947575632,95.87412288044187 453.98983728156867,95.34737390924846 453.925925925926,94.55144032921811 C453.925925925926,94.55144032921811 456.03292181069963,93.10288065843622 456.03292181069963,93.10288065843622 C456.03292181069963,93.10288065843622 456.43773814967244,92.44769598130368 456.43773814967244,92.44769598130368 C456.87101637638847,91.01431456343764 456.53285654302965,88.91707328924161 455.96951684194494,87.47934766041763 L455.8394553675763,82.5109993395316 L455.2427983539095,79.25925925925927 C455.2427983539095,79.25925925925927 455.11111111111114,71.11111111111113 455.11111111111114,71.11111111111113 L454.8249758674999,65.10877406899354 L455.1631357008588,61 C455.29634865191355,59.93243821129837 454.95818881855485,58.83953231958134 454.4608037392676,58.189503632576354 C454.4608037392676,58.189503632576354 454.01213991769555,61.76419753086421 454.01213991769555,61.76419753086421 L453.08215211095876,66.07122897932229 L453.0041152263375,71.11111111111111 C451.5352459560965,71.64576381805462 450.613435256508,71.1190148468612 450.2386831275721,69.53086419753087 C450.37109293411686,66.29413989511536 450.37109293411686,63.04585457275597 450.2386831275721,59.78600823045268 C450.2386831275721,59.78600823045268 451.42386831275724,53.20164609053499 451.42386831275724,53.20164609053499 C451.71227836524747,52.40539800853852 452.108711835755,51.57137880414894 452.61316872427994,50.69958847736626 C453.1482975774584,49.81087209786608 453.9375912149459,49.246730452791645 454.9810496367425,49.007163542142976 L457.1140578163899,48.69501600365798 Z" fill="url(#bf)"></path>
</svg>