<svg xmlns="http://www.w3.org/2000/svg" viewBox="0 0 533 122" width="533" height="122">
<g fill="none" stroke="#ff3d49" stroke-width="1.7" stroke-linejoin="round" stroke-linecap="round"><path d="M235.2592592592593,46.51851851851852 C235.2592592592593,46.51851851851852 240.2592592592593,44.14814814814815 240.2592592592593,44.14814814814815 C240.2592592592593,44.14814814814815 276.14814814814815,46.51851851851852 276.14814814814815,46.51851851851852 C276.14814814814815,46.51851851851852 278.51851851851853,44.14814814814815 278.51851851851853,44.14814814814815 C278.51851851851853,44.14814814814815 310.8148148148148,48.2962962962963 310.8148148148148,48.2962962962963 C310.8148148148148,48.2962962962963 313.7777777777778,46.81481481481482 313.7777777777778,46.81481481481482 C313.7777777777778,46.81481481481482 316.44444444444446,44.14814814814815 316.44444444444446,44.14814814814815 C316.44444444444446,44.14814814814815 346.6666666666667,46.81481481481481 346.6666666666667,46.81481481481481 C346.6666666666667,46.81481481481481 346.6666666666667,52.44444444444444 346.6666666666667,52.44444444444444 C346.6666666666667,52.44444444444444 351.11111111111114,58.074074074074076 351.11111111111114,58.074074074074076 C351.11111111111114,58.074074074074076 365.6296296296297,58.074074074074076 365.6296296296297,58.074074074074076 C365.6296296296297,58.074074074074076 369.1851851851852,58.074074074074076 369.1851851851852,58.074074074074076 C369.1851851851852,58.074074074074076 373.925925925926,61 373.925925925926,61 C373.925925925926,61 422.51851851851853,63.407407407407405 422.51851851851853,63.407407407407405 C422.51851851851853,63.407407407407405 422.51851851851853,85.92592592592592 422.51851851851853,85.92592592592592 C422.51851851851853,85.92592592592592 404.74074074074076,84.74074074074073 404.74074074074076,84.74074074074073 C404.74074074074076,84.74074074074073 368.2962962962963,98.07407407407408 368.2962962962963,98.07407407407408 C368.2962962962963,98.07407407407408 357.9259259259259,98.07407407407408 357.9259259259259,98.07407407407408 C357.9259259259259,98.07407407407408 359.70370370370375,90.37037037037035 359.70370370370375,90.37037037037035 C359.70370370370375,90.37037037037035 354.962962962963,78.81481481481481 354.962962962963,78.81481481481481 C354.962962962963,78.81481481481481 349.03703703703707,79.11111111111111 349.03703703703707,79.11111111111111 C349.03703703703707,79.11111111111111 337.7777777777778,95.40740740740739 337.7777777777778,95.40740740740739 C337.7777777777778,95.40740740740739 312.5925925925926,94.22222222222223 312.5925925925926,94.22222222222223 C312.5925925925926,94.22222222222223 312.5925925925926,89.18518518518519 312.5925925925926,89.18518518518519 C312.5925925925926,89.18518518518519 303.1111111111112,72.59259259259261 303.1111111111112,72.59259259259261 C303.1111111111112,72.59259259259261 294.81481481481484,71.70370370370372 294.81481481481484,71.70370370370372 C294.81481481481484,71.70370370370372 293.9259259259259,74.96296296296296 293.9259259259259,74.96296296296296 C293.9259259259259,74.96296296296296 289.4814814814815,75.55555555555556 289.4814814814815,75.55555555555556 C289.4814814814815,75.55555555555556 287.70370370370375,71.11111111111111 287.70370370370375,71.11111111111111 C287.70370370370375,71.11111111111111 283.8518518518519,71.11111111111111 283.8518518518519,71.11111111111111 C283.8518518518519,71.11111111111111 281.1851851851852,67.55555555555556 281.1851851851852,67.55555555555556 C281.1851851851852,67.55555555555556 240.00000000000003,66.07407407407408 240.00000000000003,66.07407407407408 C240.00000000000003,66.07407407407408 237.33333333333337,61 237.33333333333337,61 C237.33333333333337,61 232.5925925925926,61 232.5925925925926,61 C232.5925925925926,61 232.5925925925926,57.77777777777777 232.5925925925926,57.77777777777777 C232.5925925925926,57.77777777777777 309.6296296296297,63.407407407407405 309.6296296296297,63.407407407407405 C309.6296296296297,63.407407407407405 312.5925925925926,61 312.5925925925926,61 C312.5925925925926,61 310.22222222222223,57.77777777777777 310.22222222222223,57.77777777777777 C310.22222222222223,57.77777777777777 252.14814814814818,55.407407407407405 252.14814814814818,55.407407407407405 C252.14814814814818,55.407407407407405 248.29629629629633,53.03703703703704 248.29629629629633,53.03703703703704 C248.29629629629633,53.03703703703704 239.11111111111114,53.33333333333333 239.11111111111114,53.33333333333333 C239.11111111111114,53.33333333333333 234.962962962963,53.03703703703704 234.962962962963,53.03703703703704 C234.962962962963,53.03703703703704 235.2592592592593,46.51851851851852 235.2592592592593,46.51851851851852 Z"></path><path d="M-0.000000000000033584246494910985,0.5925925925926117 C-0.000000000000033584246494910985,0.5925925925926117 28.740740740740716,2.3703703703703876 26.66666666666664,2.3703703703703876 C26.772713260228112,-0.12962962962961244 21.03703703703701,13.629629629629619 21.03703703703701,13.629629629629619 C21.03703703703701,13.629629629629619 6.814814814814765,13.037037037037026 6.814814814814765,13.037037037037026 C6.814814814814765,13.037037037037026 -0.000000000000033584246494910985,0.5925925925926117 -0.000000000000033584246494910985,0.5925925925926117 Z" transform="matrix(1,0,0,1,313.481481481,73.777777778)"></path><path d="M0,0 C0,0 2.5925925925925526,16.296296296296276 5,16.296296296296276 C7.407407407407447,16.296296296296276 24.296296296296305,8.148148148148138 24.296296296296305,8.148148148148138 C24.296296296296305,8.148148148148138 26.666666666666686,6.518518518518533 20.740740740740762,3.2592592592592666 C14.814814814814838,0 0,0 0,0 Z" transform="matrix(1,0,0,1,363.851851852,71.111111111)"></path></g>
</svg>