<svg xmlns="http://www.w3.org/2000/svg" viewBox="0 0 320 230" width="320" height="230">
  <defs>
    <linearGradient id="mmg" x1="0" y1="0" x2="1" y2="1">
      <stop offset="0" stop-color="#c4141d" stop-opacity="0.92"></stop>
      <stop offset="0.4" stop-color="#7d0e14" stop-opacity="0.85"></stop>
      <stop offset="1" stop-color="#1c0507" stop-opacity="0.92"></stop>
    </linearGradient>
    <radialGradient id="mmv" cx="0.42" cy="0.4" r="0.75">
      <stop offset="0.5" stop-color="#000" stop-opacity="0"></stop>
      <stop offset="1" stop-color="#000" stop-opacity="0.6"></stop>
    </radialGradient>
    <pattern id="mmdot" width="9" height="9" patternUnits="userSpaceOnUse">
      <circle cx="2" cy="2" r="1.35" fill="#ff3742" fill-opacity="0.5"></circle>
    </pattern>
    <clipPath id="mmc"><polygon points="0,0 320,0 320,230 0,230"></polygon></clipPath>
  </defs>

  <g clip-path="url(#mmc)">
    <rect x="0" y="0" width="320" height="230" fill="url(#mmg)"></rect>
    <rect x="0" y="0" width="320" height="230" fill="url(#mmdot)"></rect>

    
    <g stroke="#ff5560" stroke-opacity="0.12" stroke-width="1">
      <path d="M-40 40 L360 20"></path><path d="M-40 90 L360 60"></path>
      <path d="M-40 145 L360 110"></path><path d="M-40 205 L360 165"></path>
      <path d="M60 -10 L34 240"></path><path d="M150 -10 L128 240"></path>
      <path d="M240 -10 L224 240"></path>
    </g>

    
    <g fill="none" stroke="#ffffff" stroke-opacity="0.62" stroke-width="2" stroke-linejoin="round" stroke-linecap="round">
      <path d="M158 40 L158 96 M158 120 L158 158"></path>
      <path d="M158 40 L214 36 L300 30"></path>
      <path d="M214 36 L214 150 L158 158"></path>
      <path d="M214 74 L300 68"></path>
      <path d="M300 30 L300 150 L214 150"></path>
    </g>
    <g fill="none" stroke="#33e2f0" stroke-opacity="0.5" stroke-width="1.6" stroke-linejoin="round">
      <path d="M32 52 L32 104 L108 98 L108 168"></path>
      <path d="M0 128 L60 122 L62 214"></path>
    </g>

    
    <polygon points="152,124 122,44 186,52" fill="#fcee0a" fill-opacity="0.2"></polygon>
    <polygon points="152,124 136,74 172,78" fill="#fcee0a" fill-opacity="0.16"></polygon>

    
    <g transform="translate(70,184)">
      <polygon points="0,-13 6,-5 0,-5" fill="#ff2f3a"></polygon>
      <polygon points="-7,-4 7,-4 0,7" fill="#ff2f3a"></polygon>
      <circle cx="0" cy="7" r="1.6" fill="#ff9098"></circle>
    </g>
    
    <path d="M74 180 Q150 176 150 128" fill="none" stroke="#fcee0a" stroke-opacity="0.85" stroke-width="1.6" stroke-dasharray="1.5 4.5" stroke-linecap="round"></path>

    <rect x="0" y="0" width="320" height="230" fill="url(#mmv)"></rect>
  </g>

  
  <g transform="translate(152,122)">
    <polygon points="0,-9 8,4 0,1 -8,4" fill="#ff2f3a" stroke="#ff9098" stroke-width="0.6"></polygon>
    <circle cx="0" cy="2" r="2.2" fill="#33e2f0"></circle>
  </g>
</svg>